<?xml version="1.0" standalone="no"?>
<!DOCTYPE svg PUBLIC "-//W3C//DTD SVG 1.1//EN" "http://www.w3.org/Graphics/SVG/1.1/DTD/svg11.dtd">
<svg xmlns="http://www.w3.org/2000/svg" id="Camada_2" data-name="Camada 2" viewBox="0 0 2358.19 839.17" width="2358.18994140625" height="839.1699829101562">
  <defs>
    <style>
      .cls-1 {
        fill: #c5aff7;
      }

      .cls-1, .cls-2, .cls-3, .cls-4, .cls-5, .cls-6 {
        stroke-width: 0px;
      }

      .cls-1, .cls-2, .cls-4, .cls-6 {
        fill-rule: evenodd;
      }

      .cls-2, .cls-3 {
        fill: #8c65e6;
      }

      .cls-4, .cls-5 {
        fill: #654aba;
      }

      .cls-6 {
        fill: #b3d689;
      }
    </style>
  </defs>
  <g id="Pattern_Ñëîé_23" data-name="Pattern Ñëîé 23">
    <g>
      <path class="cls-5" d="M492.44,777.25c-118.96-170.47-42.64-632.32,81.44-712.1-125.62,118.04-176.33,515.92-74.31,687.39l-7.13,24.71Z"/>
      <path class="cls-1" d="M436.31,584.41c19.32-231.05,187.53-76.52,0,0h0Z"/>
      <path class="cls-1" d="M436.31,584.41c-19.19-231.05-187.53-76.52,0,0h0Z"/>
      <path class="cls-4" d="M436.31,584.41c18.44-193.92-143.75-91.07,0,0h0Z"/>
      <path class="cls-4" d="M436.31,584.41c-26.47-169.84,121.8-87.81,0,0h0Z"/>
      <path class="cls-1" d="M438.29,437.76c72.38-209.73,191.92-26.59,0,0h0Z"/>
      <path class="cls-1" d="M438.17,437.76c36.75-218.76-155.79-115.15,0,0h0Z"/>
      <path class="cls-4" d="M438.17,437.76c62.97-175.49-111.76-118.41,0,0h0Z"/>
      <path class="cls-4" d="M438.17,437.76c15.68-163.69,133.71-52.56,0,0h0Z"/>
      <path class="cls-1" d="M461.54,309.32c76.52-173.23,165.2-9.03,0,0h0Z"/>
      <path class="cls-1" d="M461.54,309.32c46.79-183.51-124.43-109.13,0,0h0Z"/>
      <path class="cls-4" d="M461.54,309.32c65.98-144.88-86.68-108.75,0,0h0Z"/>
      <path class="cls-4" d="M461.54,309.32c24.84-138.23,117.41-35.25,0,0h0Z"/>
      <path class="cls-1" d="M485.08,196.01c102.98-124.56,137.73,30.86,0,0h0Z"/>
      <path class="cls-1" d="M485.08,196.01c80.91-139.86-76.89-118.41,0,0h0Z"/>
      <path class="cls-4" d="M485.08,196.01c87.68-103.61-46.04-109.38,0,0h0Z"/>
      <path class="cls-4" d="M485.08,196.01c52.43-107.75,104.61-1.76,0,0h0Z"/>
      <path class="cls-1" d="M520.39,118.32c103.23-89.94,110.89,44.66,0,0h0Z"/>
      <path class="cls-1" d="M520.39,118.32c86.93-105.74-47.92-109.51,0,0h0Z"/>
      <path class="cls-4" d="M520.39,118.32c87.55-74.51-23.33-97.71,0,0h0Z"/>
      <path class="cls-4" d="M520.39,118.32c58.7-82.79,87.68,12.92,0,0h0Z"/>
      <path class="cls-4" d="M577,69.46c111.14,29.23,66.73-75.01,0,0h0Z"/>
      <path class="cls-1" d="M576,70.21c17.44-135.6,112.52-40.14,0,0h0Z"/>
      <path class="cls-3" d="M286.5,193.23c-88.06,179.12,3.14,461.1,237.45,581.77-134.84-31.48-406.54-330.27-237.45-581.77h0Z"/>
      <path class="cls-1" d="M382.58,675.53c-106.5-168.46,89.06-149.65,0,0h0Z"/>
      <path class="cls-1" d="M382.58,675.53c-132.96-148.52-168.34,44.78,0,0h0Z"/>
      <path class="cls-2" d="M382.58,675.53c-87.93-142.62-145.88,12.04,0,0h0Z"/>
      <path class="cls-2" d="M382.58,675.53c-106.12-102.73,38.01-123.3,0,0h0Z"/>
      <path class="cls-1" d="M278.47,511.84c-59.08-181.51,118.04-117.78,0,0h0Z"/>
      <path class="cls-1" d="M278.47,511.84c-88.31-169.21-166.7,1.76,0,0h0Z"/>
      <path class="cls-2" d="M278.47,511.84c-47.79-153.03-138.23-23.33,0,0h0Z"/>
      <path class="cls-2" d="M278.47,511.84c-74.26-120.42,64.47-105.49,0,0h0Z"/>
      <path class="cls-1" d="M253.26,421.27c-37.25-158.55,108.75-91.82,0,0h0Z"/>
      <path class="cls-1" d="M253.26,421.27c-63.09-150.15-141.99-10.29,0,0h0Z"/>
      <path class="cls-2" d="M253.26,421.27c-29.85-133.59-115.9-29.6,0,0h0Z"/>
      <path class="cls-2" d="M253.26,421.27c-54.56-107.75,62.34-85.05,0,0h0Z"/>
      <path class="cls-1" d="M248.62,332.21c6.15-138.98,110.63-50.17,0,0h0Z"/>
      <path class="cls-1" d="M248.62,332.21c-16.93-137.98-114.15-41.52,0,0h0Z"/>
      <path class="cls-2" d="M248.62,332.21c6.52-116.66-88.31-51.3,0,0h0Z"/>
      <path class="cls-2" d="M248.62,332.21c-19.82-101.23,70.87-55.44,0,0h0Z"/>
      <path class="cls-1" d="M261.41,253.81c24.08-115.15,99.22-26.72,0,0h0Z"/>
      <path class="cls-1" d="M261.41,253.81c4.77-117.53-89.69-50.3,0,0h0Z"/>
      <path class="cls-2" d="M261.41,253.81c21.32-96.46-66.73-54.94,0,0h0Z"/>
      <path class="cls-2" d="M261.41,253.81c-2.76-87.18,66.73-36.63,0,0h0Z"/>
      <path class="cls-2" d="M284.62,197.49c91.44-37.63,6.9-86.05,0,0h0Z"/>
      <path class="cls-1" d="M284.37,198.5c-58.45-102.11,56.45-85.92,0,0h0Z"/>
      <path class="cls-5" d="M659.21,518.49c0,85.3-34.62,162.69-90.56,218.63-55.94,55.94-133.34,90.56-218.63,90.56-38.26,0-75.01-7.02-108.88-19.69,11.29-4.64,24.84-9.28,40.64-13.42,21.83,5.39,44.66,8.15,68.24,8.15,39.01,0,76.14-7.78,110.01-22.08h.5-.25c34.12-14.43,64.98-35.37,90.69-61.21,51.55-51.43,83.29-122.43,83.29-200.95,0-36.63-7.02-72.63-20.32-105.87-13.42-33.37-33.12-64.22-58.45-90.69,81.03,49.17,103.74,153.66,103.74,196.56h0ZM190.33,783.29c-21.45-12.92-41.27-28.47-58.95-46.16-5.77-5.9-11.41-11.92-16.68-18.19,9.03-1.38,19.07-2.76,29.98-3.76,1.38,1.38,2.89,2.89,4.26,4.26,19.57,19.57,41.9,36.25,66.36,49.42-4.01,1.88-8.03,3.89-11.92,6.02-4.89,2.63-9.28,5.52-13.05,8.4h0ZM73.17,656.22c-20.7-41.52-32.36-88.31-32.36-137.73,0-94.58,53.18-199.07,147.64-233.94-38.51,26.59-69.24,61.71-90.19,101.85-21.07,40.01-32.61,85.3-32.61,132.08s11.79,92.45,32.49,131.83c-7.15,1.38-14.17,3.01-21.2,4.77l-3.76,1.13ZM246.15,783.16l1.51.63c-3.01,1-6.02,2.01-9.16,3.01,2.26-1.13,4.77-2.38,7.65-3.64h0Z"/>
      <path class="cls-6" d="M445.46,738.62c-60.96-33.88-232.43-91.95-383.96-64.47-79.53,14.43-84.92,61.01,1.38,49.86,51.68-11.67,195.18-21.95,378.44,20.31-59.71-28.26-193.55-58.5-331.9-49.09,51.3-8.73,183.51-15.47,336.04,43.38h0Z"/>
      <path class="cls-6" d="M428.88,735.16c-48.85-4.85-172.18,4.73-251.09,61.56-41.38,29.8-26.75,59.91,19.83,30.28,26.16-20.77,106.76-64.93,230.94-87.33-45.99-1.61-136.43,15.11-214.52,57.4,27.01-18.86,102.42-57.89,214.84-61.91h0Z"/>
      <g>
        <path class="cls-5" d="M697.74,449.42h29.18v201.56h96.59v24.48h-125.77v-226.05Z"/>
        <path class="cls-5" d="M892.59,604.36l-23.48,71.1h-30.18l76.8-226.05h35.22l77.14,226.05h-31.19l-24.15-71.1h-80.16ZM966.71,581.56l-22.14-65.06c-5.03-14.76-8.38-28.17-11.74-41.25h-.67c-3.35,13.42-7.04,27.17-11.4,40.92l-22.14,65.4h68.08Z"/>
        <path class="cls-5" d="M1093.15,675.46l-73.78-226.05h31.53l35.21,111.35c9.73,30.52,18.11,58.02,24.15,84.52h.67c6.37-26.16,15.76-54.67,25.82-84.18l38.23-111.68h31.19l-80.83,226.05h-32.2Z"/>
        <path class="cls-5" d="M1248.1,604.36l-23.48,71.1h-30.18l76.8-226.05h35.22l77.14,226.05h-31.19l-24.15-71.1h-80.16ZM1322.22,581.56l-22.14-65.06c-5.03-14.76-8.38-28.17-11.74-41.25h-.67c-3.35,13.42-7.04,27.17-11.4,40.92l-22.14,65.4h68.08Z"/>
        <path class="cls-5" d="M1416.79,675.46v-226.05h31.86l72.44,114.36c16.77,26.5,29.85,50.31,40.58,73.45l.67-.34c-2.68-30.19-3.35-57.69-3.35-92.9v-94.58h27.5v226.05h-29.51l-71.77-114.7c-15.76-25.15-30.86-50.98-42.26-75.46l-1.01.34c1.68,28.51,2.35,55.67,2.35,93.24v96.59h-27.5Z"/>
        <path class="cls-5" d="M1637.47,452.44c17.77-2.68,38.9-4.7,62.05-4.7,41.92,0,71.77,9.73,91.56,28.17,20.12,18.45,31.86,44.61,31.86,81.16s-11.4,67.08-32.53,87.87c-21.13,21.13-56.01,32.53-99.94,32.53-20.79,0-38.23-1.01-52.99-2.68v-222.36ZM1666.65,652.32c7.38,1.34,18.11,1.68,29.51,1.68,62.38,0,96.25-34.88,96.25-95.92.34-53.33-29.85-87.2-91.56-87.2-15.09,0-26.5,1.34-34.21,3.02v178.42Z"/>
        <path class="cls-5" d="M1977.87,569.48h-87.87v81.5h97.93v24.48h-127.11v-226.05h122.08v24.48h-92.9v71.44h87.87v24.15Z"/>
        <path class="cls-5" d="M2025.83,452.44c14.76-3.02,35.89-4.7,56.01-4.7,31.19,0,51.31,5.7,65.4,18.45,11.4,10.06,17.77,25.49,17.77,42.93,0,29.85-18.78,49.64-42.59,57.69v1.01c17.44,6.04,27.84,22.13,33.2,45.61,7.38,31.53,12.74,53.33,17.44,62.05h-30.18c-3.69-6.37-8.72-25.82-15.09-54-6.71-31.19-18.78-42.93-45.28-43.93h-27.5v97.93h-29.18v-223.03ZM2055.01,555.4h29.85c31.19,0,50.98-17.1,50.98-42.93,0-29.18-21.13-41.92-51.98-42.26-14.09,0-24.15,1.34-28.84,2.68v82.5Z"/>
        <path class="cls-5" d="M2252.88,675.46v-95.92l-71.44-130.13h33.2l31.86,62.38c8.72,17.1,15.43,30.85,22.47,46.62h.67c6.37-14.76,14.09-29.51,22.81-46.62l32.53-62.38h33.2l-75.8,129.79v96.25h-29.51Z"/>
      </g>
      <g>
        <path class="cls-5" d="M1549.5,711.57h4.86v33.6h16.1v4.08h-20.96v-37.68Z"/>
        <path class="cls-5" d="M1581.98,737.4l-3.91,11.85h-5.03l12.8-37.68h5.87l12.86,37.68h-5.2l-4.02-11.85h-13.36ZM1594.33,733.6l-3.69-10.84c-.84-2.46-1.4-4.7-1.96-6.88h-.11c-.56,2.24-1.17,4.53-1.9,6.82l-3.69,10.9h11.35Z"/>
        <path class="cls-5" d="M1615.4,749.25l-12.3-37.68h5.26l5.87,18.56c1.62,5.09,3.02,9.67,4.02,14.09h.11c1.06-4.36,2.63-9.11,4.3-14.03l6.37-18.61h5.2l-13.47,37.68h-5.37Z"/>
        <path class="cls-5" d="M1641.23,737.4l-3.91,11.85h-5.03l12.8-37.68h5.87l12.86,37.68h-5.2l-4.02-11.85h-13.36ZM1653.58,733.6l-3.69-10.84c-.84-2.46-1.4-4.7-1.96-6.88h-.11c-.56,2.24-1.17,4.53-1.9,6.82l-3.69,10.9h11.35Z"/>
        <path class="cls-5" d="M1669.34,749.25v-37.68h5.31l12.07,19.06c2.8,4.42,4.98,8.39,6.76,12.24l.11-.06c-.45-5.03-.56-9.61-.56-15.48v-15.76h4.58v37.68h-4.92l-11.96-19.12c-2.63-4.19-5.14-8.5-7.04-12.58l-.17.06c.28,4.75.39,9.28.39,15.54v16.1h-4.58Z"/>
        <path class="cls-5" d="M1706.12,712.07c2.96-.45,6.48-.78,10.34-.78,6.99,0,11.96,1.62,15.26,4.7,3.35,3.07,5.31,7.43,5.31,13.53s-1.9,11.18-5.42,14.65c-3.52,3.52-9.34,5.42-16.66,5.42-3.47,0-6.37-.17-8.83-.45v-37.06ZM1710.99,745.39c1.23.22,3.02.28,4.92.28,10.4,0,16.04-5.81,16.04-15.99.06-8.89-4.97-14.53-15.26-14.53-2.52,0-4.42.22-5.7.5v29.74Z"/>
        <path class="cls-5" d="M1762.86,731.58h-14.65v13.58h16.32v4.08h-21.19v-37.68h20.35v4.08h-15.48v11.91h14.65v4.03Z"/>
        <path class="cls-5" d="M1770.85,712.07c2.46-.5,5.98-.78,9.33-.78,5.2,0,8.55.95,10.9,3.07,1.9,1.68,2.96,4.25,2.96,7.16,0,4.97-3.13,8.27-7.1,9.61v.17c2.91,1.01,4.64,3.69,5.53,7.6,1.23,5.25,2.12,8.89,2.91,10.34h-5.03c-.61-1.06-1.45-4.3-2.52-9-1.12-5.2-3.13-7.16-7.55-7.32h-4.58v16.32h-4.86v-37.17ZM1775.71,729.24h4.97c5.2,0,8.5-2.85,8.5-7.16,0-4.86-3.52-6.99-8.66-7.04-2.35,0-4.02.22-4.81.45v13.75Z"/>
        <path class="cls-5" d="M1805.78,711.57v37.68h-4.86v-37.68h4.86Z"/>
        <path class="cls-5" d="M1820.37,737.4l-3.91,11.85h-5.03l12.8-37.68h5.87l12.86,37.68h-5.2l-4.03-11.85h-13.36ZM1832.73,733.6l-3.69-10.84c-.84-2.46-1.4-4.7-1.96-6.88h-.11c-.56,2.24-1.17,4.53-1.9,6.82l-3.69,10.9h11.35Z"/>
        <path class="cls-5" d="M1886.67,748.02c-1.79.89-5.37,1.79-9.95,1.79-10.62,0-18.61-6.71-18.61-19.06s7.99-19.79,19.68-19.79c4.7,0,7.66,1.01,8.94,1.68l-1.17,3.97c-1.84-.89-4.47-1.56-7.6-1.56-8.83,0-14.7,5.65-14.7,15.54,0,9.22,5.31,15.15,14.48,15.15,2.96,0,5.98-.61,7.94-1.56l1.01,3.86Z"/>
        <path class="cls-5" d="M1923.78,730.02c0,12.97-7.88,19.84-17.5,19.84s-16.94-7.71-16.94-19.12c0-11.96,7.43-19.79,17.5-19.79s16.94,7.88,16.94,19.06ZM1894.55,730.63c0,8.05,4.36,15.26,12.02,15.26s12.07-7.1,12.07-15.65c0-7.49-3.91-15.32-12.02-15.32s-12.07,7.43-12.07,15.71Z"/>
        <path class="cls-5" d="M1961.85,732.7c-.28-5.25-.61-11.57-.56-16.27h-.17c-1.29,4.42-2.85,9.11-4.75,14.31l-6.65,18.28h-3.69l-6.09-17.94c-1.79-5.31-3.3-10.17-4.36-14.65h-.11c-.11,4.7-.39,11.01-.73,16.66l-1.01,16.16h-4.64l2.63-37.68h6.2l6.43,18.22c1.56,4.64,2.85,8.78,3.8,12.69h.17c.95-3.8,2.29-7.94,3.97-12.69l6.71-18.22h6.2l2.35,37.68h-4.75l-.95-16.55Z"/>
        <path class="cls-5" d="M1975.04,712.02c2.35-.39,5.42-.73,9.33-.73,4.81,0,8.33,1.12,10.57,3.13,2.07,1.79,3.3,4.53,3.3,7.88s-1.01,6.09-2.91,8.05c-2.57,2.74-6.76,4.14-11.52,4.14-1.45,0-2.79-.06-3.91-.34v15.09h-4.86v-37.23ZM1979.9,730.19c1.06.28,2.4.39,4.03.39,5.87,0,9.45-2.85,9.45-8.05s-3.52-7.38-8.89-7.38c-2.12,0-3.75.17-4.58.39v14.65Z"/>
        <path class="cls-5" d="M2006.17,737.4l-3.91,11.85h-5.03l12.8-37.68h5.87l12.86,37.68h-5.2l-4.02-11.85h-13.36ZM2018.52,733.6l-3.69-10.84c-.84-2.46-1.4-4.7-1.96-6.88h-.11c-.56,2.24-1.17,4.53-1.9,6.82l-3.69,10.9h11.35Z"/>
        <path class="cls-5" d="M2034.29,712.07c2.46-.5,5.98-.78,9.33-.78,5.2,0,8.55.95,10.9,3.07,1.9,1.68,2.96,4.25,2.96,7.16,0,4.97-3.13,8.27-7.1,9.61v.17c2.91,1.01,4.64,3.69,5.53,7.6,1.23,5.25,2.12,8.89,2.91,10.34h-5.03c-.61-1.06-1.45-4.3-2.52-9-1.12-5.2-3.13-7.16-7.55-7.32h-4.58v16.32h-4.86v-37.17ZM2039.15,729.24h4.97c5.2,0,8.5-2.85,8.5-7.16,0-4.86-3.52-6.99-8.66-7.04-2.35,0-4.02.22-4.81.45v13.75Z"/>
        <path class="cls-5" d="M2072.02,715.71h-11.46v-4.14h27.89v4.14h-11.52v33.54h-4.92v-33.54Z"/>
        <path class="cls-5" d="M2097.5,711.57v37.68h-4.86v-37.68h4.86Z"/>
        <path class="cls-5" d="M2106,711.57h4.86v33.6h16.1v4.08h-20.96v-37.68Z"/>
        <path class="cls-5" d="M2137.25,711.57v15.76h18.22v-15.76h4.92v37.68h-4.92v-17.66h-18.22v17.66h-4.86v-37.68h4.86Z"/>
        <path class="cls-5" d="M2174.92,737.4l-3.91,11.85h-5.03l12.8-37.68h5.87l12.86,37.68h-5.2l-4.03-11.85h-13.36ZM2187.27,733.6l-3.69-10.84c-.84-2.46-1.4-4.7-1.96-6.88h-.11c-.56,2.24-1.17,4.53-1.9,6.82l-3.69,10.9h11.35Z"/>
        <path class="cls-5" d="M2203.03,712.07c2.96-.45,6.48-.78,10.34-.78,6.99,0,11.96,1.62,15.26,4.7,3.35,3.07,5.31,7.43,5.31,13.53s-1.9,11.18-5.42,14.65c-3.52,3.52-9.33,5.42-16.66,5.42-3.47,0-6.37-.17-8.83-.45v-37.06ZM2207.9,745.39c1.23.22,3.02.28,4.92.28,10.4,0,16.04-5.81,16.04-15.99.06-8.89-4.98-14.53-15.26-14.53-2.52,0-4.42.22-5.7.5v29.74Z"/>
        <path class="cls-5" d="M2245.57,737.4l-3.91,11.85h-5.03l12.8-37.68h5.87l12.86,37.68h-5.2l-4.02-11.85h-13.36ZM2257.93,733.6l-3.69-10.84c-.84-2.46-1.4-4.7-1.96-6.88h-.11c-.56,2.24-1.17,4.53-1.9,6.82l-3.69,10.9h11.35Z"/>
      </g>
      <text/>
    </g>
  </g>
</svg>